<svg width="111" height="111" viewBox="0 0 111 111" fill="none" xmlns="http://www.w3.org/2000/svg">
<path d="M10.2797 36.5564C9.4734 32.9231 9.5972 29.145 10.6396 25.5723C11.682 21.9997 13.6092 18.7482 16.2426 16.1193C18.8759 13.4904 22.1302 11.5692 25.7036 10.5339C29.277 9.4986 33.0539 9.38266 36.684 10.1968C38.6821 7.07074 41.4346 4.4981 44.6879 2.71608C47.9412 0.934061 51.5906 0 55.2997 0C59.0087 0 62.6581 0.934061 65.9114 2.71608C69.1647 4.4981 71.9172 7.07074 73.9153 10.1968C77.551 9.37911 81.3343 9.49453 84.9134 10.5324C88.4925 11.5702 91.7511 13.4967 94.3861 16.1327C97.0211 18.7688 98.9469 22.0286 99.9843 25.6092C101.022 29.1897 101.137 32.9745 100.32 36.6116C103.445 38.6105 106.016 41.3641 107.797 44.6187C109.579 47.8733 110.512 51.5241 110.512 55.2346C110.512 58.9451 109.579 62.5959 107.797 65.8505C106.016 69.1051 103.445 71.8587 100.32 73.8576C101.134 77.4891 101.018 81.2675 99.9827 84.8423C98.9478 88.4171 97.0274 91.6727 94.3996 94.3071C91.7717 96.9415 88.5215 98.8695 84.9502 99.9123C81.379 100.955 77.6024 101.079 73.9705 100.272C71.9751 103.41 69.2204 105.994 65.9615 107.784C62.7027 109.574 59.045 110.512 55.3273 110.512C51.6095 110.512 47.9519 109.574 44.693 107.784C41.4342 105.994 38.6795 103.41 36.684 100.272C33.0539 101.087 29.277 100.971 25.7036 99.9353C22.1302 98.9 18.8759 96.9788 16.2426 94.3499C13.6092 91.721 11.682 88.4695 10.6396 84.8968C9.5972 81.3242 9.4734 77.5461 10.2797 73.9128C7.13079 71.9192 4.53707 69.1613 2.73978 65.8956C0.942482 62.6299 0 58.9625 0 55.2346C0 51.5066 0.942482 47.8392 2.73978 44.5736C4.53707 41.3079 7.13079 38.5499 10.2797 36.5564Z" fill="white"/>
<path d="M30.0859 73.2291L56.3984 54.6556L30.0859 36.082V73.2291ZM57.9462 36.082V73.2291L84.2587 54.6556L57.9462 36.082Z" fill="#0095F6"/>
</svg>
