<svg width="111" height="111" viewBox="0 0 111 111" fill="none" xmlns="http://www.w3.org/2000/svg">
<path d="M10.2794 36.5555C9.47319 32.9223 9.59699 29.1443 10.6394 25.5718C11.6817 21.9992 13.6089 18.7478 16.2422 16.1189C18.8755 13.4901 22.1297 11.569 25.703 10.5337C29.2764 9.49838 33.0532 9.38245 36.6832 10.1966C38.6812 7.07058 41.4337 4.498 44.6869 2.71602C47.9402 0.93404 51.5894 0 55.2984 0C59.0074 0 62.6567 0.93404 65.9099 2.71602C69.1631 4.498 71.9156 7.07058 73.9136 10.1966C77.5492 9.3789 81.3325 9.49432 84.9115 10.5321C88.4905 11.5699 91.7491 13.4964 94.384 16.1324C97.0189 18.7683 98.9446 22.0281 99.982 25.6086C101.019 29.189 101.135 32.9738 100.317 36.6108C103.442 38.6096 106.014 41.3632 107.795 44.6177C109.576 47.8722 110.51 51.5229 110.51 55.2333C110.51 58.9438 109.576 62.5945 107.795 65.849C106.014 69.1035 103.442 71.8571 100.317 73.8559C101.131 77.4874 101.015 81.2657 99.9805 84.8404C98.9456 88.4151 97.0252 91.6706 94.3974 94.3049C91.7696 96.9393 88.5195 98.8672 84.9483 99.91C81.3772 100.953 77.6006 101.077 73.9689 100.27C71.9735 103.408 69.2188 105.992 65.96 107.782C62.7013 109.572 59.0437 110.51 55.326 110.51C51.6084 110.51 47.9508 109.572 44.692 107.782C41.4332 105.992 38.6786 103.408 36.6832 100.27C33.0532 101.084 29.2764 100.968 25.703 99.933C22.1297 98.8977 18.8755 96.9766 16.2422 94.3478C13.6089 91.7189 11.6817 88.4675 10.6394 84.8949C9.59699 81.3224 9.47319 77.5443 10.2794 73.9111C7.13063 71.9176 4.53697 69.1598 2.73972 65.8941C0.942461 62.6285 0 58.9612 0 55.2333C0 51.5055 0.942461 47.8382 2.73972 44.5725C4.53697 41.3069 7.13063 38.5491 10.2794 36.5555Z" fill="white"/>
<path d="M61.5079 66.2149C59.9032 63.3733 56.0163 61.4876 55.2521 57.8922C53.7761 58.4884 52.526 60.2874 51.8799 61.7371C51.2759 63.0923 50.6797 67.5859 50.4643 67.8144C49.6738 68.66 46.5512 66.3962 45.8053 65.7711C44.6629 70.354 45.1251 75.5304 48.1716 79.2912C48.8255 80.0975 51.5569 82.2012 51.7197 82.5741C51.8563 82.8892 51.7171 83.186 51.444 83.3646H58.9341L58.5244 83.0993C58.2303 82.5058 60.6412 80.0161 61.1455 79.1442C63.3043 75.4043 63.6719 70.0467 61.5079 66.2149Z" fill="white"/>
<path d="M64.7647 51.8348C66.7423 50.716 66.2381 46.0622 66.9971 45.0117C67.8401 43.8482 69.928 47.4804 70.385 48.1816C72.7092 51.7402 75.0992 56.9271 75.4957 61.1922C76.5095 72.1544 68.3128 79.2375 59.3309 83.5708L58.5772 83.0823C58.283 82.4914 60.694 79.9991 61.1982 79.1272C63.357 75.3873 63.7247 70.0297 61.5633 66.2006C59.9586 63.3589 56.0691 61.4732 55.3074 57.8779C53.8315 58.474 52.5814 60.273 51.9353 61.7227C51.3312 63.0779 50.7351 67.5715 50.5197 67.8C49.7292 68.6456 46.6066 66.3818 45.8607 65.7567C44.7183 70.3396 45.1805 75.516 48.227 79.2768C48.8809 80.0831 51.6123 82.1868 51.7751 82.5623C52.0325 83.1506 51.3234 83.6733 50.5854 83.5025C43.9803 81.9688 35.9438 75.5318 33.8507 68.966C32.2775 64.0339 32.9814 54.4374 35.6786 49.936C36.8867 47.9216 37.798 51.2412 38.7933 52.2051C39.7887 53.1689 40.9233 53.4893 42.176 53.9411C41.7899 44.3288 45.296 35.93 53.4927 30.7194C54.5117 30.0655 58.48 27.8042 59.4281 27.7176C61.4477 27.5285 58.8687 31.439 58.5956 32.1429C57.6291 34.6378 57.0644 37.4375 57.7446 40.0743C58.8188 44.2395 65.4397 46.5349 64.7647 51.8348Z" fill="#F24822"/>
</svg>
