<svg width="111" height="111" viewBox="0 0 111 111" fill="none" xmlns="http://www.w3.org/2000/svg">
<path d="M10.2794 36.5555C9.47319 32.9223 9.59699 29.1443 10.6394 25.5718C11.6817 21.9992 13.6089 18.7478 16.2422 16.1189C18.8755 13.4901 22.1297 11.569 25.703 10.5337C29.2764 9.49838 33.0532 9.38245 36.6832 10.1966C38.6812 7.07058 41.4337 4.498 44.6869 2.71602C47.9402 0.93404 51.5894 0 55.2984 0C59.0074 0 62.6567 0.93404 65.9099 2.71602C69.1631 4.498 71.9156 7.07058 73.9136 10.1966C77.5492 9.3789 81.3325 9.49432 84.9115 10.5321C88.4905 11.5699 91.7491 13.4964 94.384 16.1324C97.0189 18.7683 98.9446 22.0281 99.982 25.6086C101.019 29.189 101.135 32.9738 100.317 36.6108C103.442 38.6096 106.014 41.3632 107.795 44.6177C109.576 47.8722 110.51 51.5229 110.51 55.2333C110.51 58.9438 109.576 62.5945 107.795 65.849C106.014 69.1035 103.442 71.8571 100.317 73.8559C101.131 77.4874 101.015 81.2657 99.9805 84.8404C98.9456 88.4151 97.0252 91.6706 94.3974 94.3049C91.7696 96.9393 88.5195 98.8672 84.9483 99.91C81.3772 100.953 77.6006 101.077 73.9689 100.27C71.9735 103.408 69.2188 105.992 65.96 107.782C62.7013 109.572 59.0437 110.51 55.326 110.51C51.6084 110.51 47.9508 109.572 44.692 107.782C41.4332 105.992 38.6786 103.408 36.6832 100.27C33.0532 101.084 29.2764 100.968 25.703 99.933C22.1297 98.8977 18.8755 96.9766 16.2422 94.3478C13.6089 91.7189 11.6817 88.4675 10.6394 84.8949C9.59699 81.3224 9.47319 77.5443 10.2794 73.9111C7.13063 71.9176 4.53697 69.1598 2.73972 65.8941C0.942461 62.6285 0 58.9612 0 55.2333C0 51.5055 0.942461 47.8382 2.73972 44.5725C4.53697 41.3069 7.13063 38.5491 10.2794 36.5555Z" fill="white"/>
<path fill-rule="evenodd" clip-rule="evenodd" d="M33.8132 66.8437V73.0347C33.8132 74.7444 35.1824 76.1302 36.8714 76.1302H82.7429C84.4317 76.1302 85.801 74.7444 85.801 73.0347V48.2706C85.801 46.5609 84.4317 45.175 82.7429 45.175H78.9365V50.8533C79.1016 51.1022 79.2904 51.3348 79.501 51.5478C79.9268 51.979 80.4326 52.321 80.9891 52.5543C81.5452 52.7875 82.141 52.9075 82.7429 52.9078V68.3914C82.1495 68.395 81.5625 68.5149 81.0141 68.7449C80.4576 68.9782 79.9519 69.3202 79.5259 69.7514C79.0999 70.1826 78.7622 70.6945 78.5316 71.2577C78.301 71.8211 78.1823 72.4249 78.1823 73.0347H41.4521C41.4447 72.4447 41.3264 71.8613 41.1033 71.3159C40.8727 70.7527 40.5348 70.2408 40.1088 69.8096C39.683 69.3784 39.1773 69.0364 38.6207 68.8031C38.066 68.5705 37.4717 68.4504 36.8714 68.4496V66.8437H33.8132ZM49.8845 51.3661C51.5735 51.3661 52.9426 49.9802 52.9426 48.2706C52.9426 46.5609 51.5735 45.175 49.8845 45.175C48.1955 45.175 46.8264 46.5609 46.8264 48.2706C46.8264 49.9802 48.1955 51.3661 49.8845 51.3661ZM49.8845 54.4616C53.2623 54.4616 56.0007 51.6897 56.0007 48.2706C56.0007 44.8514 53.2623 42.0795 49.8845 42.0795C46.5067 42.0795 43.7683 44.8514 43.7683 48.2706C43.7683 51.6897 46.5067 54.4616 49.8845 54.4616Z" fill="#0095F6"/>
<path fill-rule="evenodd" clip-rule="evenodd" d="M26.9487 32.793C25.2598 32.793 23.8906 34.1788 23.8906 35.8885V60.6526C23.8906 62.3623 25.2598 63.7481 26.9487 63.7481H72.8203C74.5093 63.7481 75.8784 62.3623 75.8784 60.6526V35.8885C75.8784 34.1788 74.5093 32.793 72.8203 32.793H26.9487ZM31.5331 35.8885H68.2348C68.2356 36.4961 68.3542 37.0979 68.584 37.6593C68.8145 38.2227 69.1524 38.7345 69.5784 39.1657C70.0044 39.5969 70.51 39.939 71.0664 40.1722C71.6226 40.4055 72.2184 40.5254 72.8203 40.5257V56.0095C72.227 56.0129 71.6398 56.1329 71.0915 56.3629C70.5349 56.5961 70.0293 56.9382 69.6033 57.3694C69.1774 57.8006 68.8395 58.3124 68.6089 58.8756C68.3785 59.439 68.2599 60.0428 68.2599 60.6526H31.5295C31.5222 60.0626 31.4038 59.4793 31.1807 58.9338C30.9501 58.3706 30.6122 57.8588 30.1863 57.4276C29.7603 56.9964 29.2546 56.6543 28.6981 56.4211C28.1434 56.1884 27.5491 56.0683 26.9487 56.0675V40.5318C27.5502 40.5315 28.1457 40.4113 28.7014 40.1783C29.2579 39.945 29.7636 39.603 30.1895 39.1717C30.6155 38.7405 30.9534 38.2287 31.1839 37.6655C31.4144 37.1021 31.5331 36.4983 31.5331 35.8885Z" fill="#0095F6"/>
<path d="M84.5432 48.293C84.5432 47.253 83.7082 46.4308 82.7173 46.4308H80.1538V50.4453C80.2224 50.5297 80.2829 50.6219 80.3594 50.6993C80.6707 51.0144 81.0428 51.2671 81.4477 51.4369C81.8506 51.6052 82.2818 51.6904 82.7173 51.6908H83.9507V69.6472H82.7294C82.2985 69.6498 81.8706 69.7462 81.4718 69.9133C81.0682 70.0824 80.6946 70.3248 80.3836 70.6388C80.0719 70.9542 79.8277 71.3369 79.6581 71.7512C79.4885 72.1655 79.392 72.6079 79.392 73.0571V74.2905H40.2023L40.1902 73.0692C40.1844 72.6375 40.0986 72.2104 39.9363 71.8117C39.7667 71.3975 39.5105 71.0148 39.1987 70.6992C38.8884 70.3861 38.5252 70.1307 38.1225 69.9616C37.7186 69.7922 37.2768 69.7083 36.8408 69.7077H35.6074V68.0995H35.027V73.0571C35.027 74.0972 35.8619 74.9193 36.8528 74.9193H82.7173C83.7082 74.9193 84.5432 74.0972 84.5432 73.0571V48.293ZM74.6158 35.9109C74.6158 34.8709 73.7809 34.0488 72.7899 34.0488H26.9254C25.9345 34.0488 25.0996 34.8709 25.0996 35.9109V60.6751C25.0996 61.7151 25.9345 62.5372 26.9254 62.5372H72.7899C73.7809 62.5372 74.6158 61.7151 74.6158 60.6751V35.9109ZM69.4525 34.6775V35.9109C69.4533 36.358 69.5377 36.8047 69.7065 37.2168C69.8754 37.6287 70.1219 38.0029 70.432 38.3172C70.7437 38.6328 71.1153 38.885 71.5202 39.0548C71.9249 39.2245 72.3644 39.3085 72.802 39.3087H74.0353V57.2652H72.802C72.3713 57.2678 71.9432 57.3639 71.5444 57.5312C71.1407 57.7007 70.7671 57.9422 70.4561 58.2567C70.1444 58.5724 69.9002 58.955 69.7306 59.3691C69.5617 59.783 69.4767 60.2265 69.4767 60.6751V61.9084H30.287L30.2628 60.6872C30.257 60.2548 30.1717 59.8287 30.0089 59.4296C29.8394 59.0155 29.5951 58.6328 29.2833 58.3172C28.9717 58.0018 28.6 57.7493 28.1951 57.5795C27.7926 57.411 27.36 57.3265 26.9254 57.3256H25.6921V39.3208H26.9254C27.3613 39.3204 27.7914 39.224 28.1951 39.0548C28.5988 38.8856 28.9723 38.6434 29.2833 38.3293C29.5951 38.0137 29.8393 37.631 30.0089 37.2168C30.1783 36.8026 30.2749 36.3601 30.2749 35.9109V34.6775H69.4525ZM32.3063 38.16C32.0156 38.8695 31.5863 39.5131 31.0488 40.0584C30.5085 40.6053 29.8584 41.0434 29.1503 41.3402C28.8295 41.4745 28.4966 41.5681 28.1588 41.6425V54.9919C28.4975 55.0665 28.8288 55.1714 29.1503 55.3063C29.8583 55.603 30.5085 56.0291 31.0488 56.5759C31.5884 57.1225 32.0149 57.7745 32.3063 58.4864C32.4325 58.7948 32.512 59.1179 32.5844 59.4417H67.1309C67.2042 59.0966 67.2991 58.7538 67.4332 58.426C67.7247 57.7141 68.1633 57.074 68.7028 56.5276C69.243 55.9808 69.8812 55.5426 70.5892 55.2458C70.9033 55.1141 71.226 55.0057 71.5565 54.9314V41.6304C71.2201 41.5561 70.8846 41.474 70.565 41.3402C69.8583 41.0439 69.2183 40.6039 68.6786 40.0584C68.1384 39.5116 67.7005 38.8606 67.409 38.1479C67.2763 37.8232 67.1797 37.4859 67.1067 37.1443H32.6086C32.5353 37.4891 32.4404 37.8324 32.3063 38.16ZM54.7367 48.293C54.7367 45.5447 52.5419 43.3373 49.8637 43.3353C47.1839 43.3353 44.9786 45.5434 44.9786 48.293C44.9786 51.0425 47.1839 53.2507 49.8637 53.2507C52.5419 53.2487 54.7367 51.0413 54.7367 48.293ZM51.6775 48.293C51.6775 47.2542 50.8531 46.4328 49.8637 46.4308C48.8727 46.4308 48.0378 47.2529 48.0378 48.293C48.0378 49.333 48.8727 50.1551 49.8637 50.1551C50.8531 50.1531 51.6775 49.3318 51.6775 48.293ZM54.1563 48.293C54.1563 50.671 52.249 52.6199 49.8637 52.6219C47.4767 52.6219 45.559 50.6723 45.559 48.293C45.559 45.9137 47.4767 43.9641 49.8637 43.9641C52.249 43.9661 54.1563 45.9149 54.1563 48.293ZM57.2156 48.293C57.2156 52.3805 53.9378 55.7154 49.8637 55.7174C45.7879 55.7174 42.4998 52.3818 42.4998 48.293C42.4998 44.2042 45.7879 40.8686 49.8637 40.8686C53.9378 40.8706 57.2156 44.2055 57.2156 48.293ZM87.0099 73.0571C87.0099 75.4364 85.1041 77.386 82.7173 77.386H36.8528C34.4659 77.386 32.5481 75.4364 32.5481 73.0571V65.6327H38.0862V67.374C38.4234 67.4485 38.7576 67.5541 39.0778 67.6884C39.783 67.9846 40.4255 68.4134 40.9641 68.958C41.5038 69.5044 41.93 70.1569 42.2216 70.8685C42.348 71.1774 42.4394 71.4994 42.5118 71.8238H77.0583C77.1317 71.479 77.2265 71.1357 77.3606 70.8081C77.6514 70.0987 78.0804 69.4551 78.6182 68.9096C79.1584 68.3628 79.8085 67.9246 80.5166 67.6279C80.8309 67.4963 81.1533 67.3875 81.4839 67.3135V54.0124C81.1449 53.9378 80.8023 53.8573 80.4803 53.7222C80.1282 53.5744 79.7918 53.3911 79.4767 53.1781L78.594 52.4405C78.3271 52.1705 78.0893 51.8724 77.8806 51.5578L77.675 51.2434V43.9641H82.7173C85.1041 43.9641 87.0099 45.9137 87.0099 48.293V73.0571ZM77.0946 60.6751C77.0946 63.0543 75.1769 65.004 72.7899 65.004H26.9254C24.5385 65.004 22.6328 63.0543 22.6328 60.6751V35.9109C22.6328 33.5316 24.5385 31.582 26.9254 31.582H72.7899C75.1769 31.582 77.0946 33.5317 77.0946 35.9109V60.6751Z" fill="#0095F6"/>
</svg>
