<svg width="111" height="111" viewBox="0 0 111 111" fill="none" xmlns="http://www.w3.org/2000/svg">
<path d="M10.2794 36.5555C9.47319 32.9223 9.59699 29.1443 10.6394 25.5718C11.6817 21.9992 13.6089 18.7478 16.2422 16.1189C18.8755 13.4901 22.1297 11.569 25.703 10.5337C29.2764 9.49838 33.0532 9.38245 36.6832 10.1966C38.6812 7.07058 41.4337 4.498 44.6869 2.71602C47.9402 0.93404 51.5894 0 55.2984 0C59.0074 0 62.6567 0.93404 65.9099 2.71602C69.1631 4.498 71.9156 7.07058 73.9136 10.1966C77.5492 9.3789 81.3325 9.49432 84.9115 10.5321C88.4905 11.5699 91.7491 13.4964 94.384 16.1324C97.0189 18.7683 98.9446 22.0281 99.982 25.6086C101.019 29.189 101.135 32.9738 100.317 36.6108C103.442 38.6096 106.014 41.3632 107.795 44.6177C109.576 47.8722 110.51 51.5229 110.51 55.2333C110.51 58.9438 109.576 62.5945 107.795 65.849C106.014 69.1035 103.442 71.8571 100.317 73.8559C101.131 77.4874 101.015 81.2657 99.9805 84.8404C98.9456 88.4151 97.0252 91.6706 94.3974 94.3049C91.7696 96.9393 88.5195 98.8672 84.9483 99.91C81.3772 100.953 77.6006 101.077 73.9689 100.27C71.9735 103.408 69.2188 105.992 65.96 107.782C62.7013 109.572 59.0437 110.51 55.326 110.51C51.6084 110.51 47.9508 109.572 44.692 107.782C41.4332 105.992 38.6786 103.408 36.6832 100.27C33.0532 101.084 29.2764 100.968 25.703 99.933C22.1297 98.8977 18.8755 96.9766 16.2422 94.3478C13.6089 91.7189 11.6817 88.4675 10.6394 84.8949C9.59699 81.3224 9.47319 77.5443 10.2794 73.9111C7.13063 71.9176 4.53697 69.1598 2.73972 65.8941C0.942461 62.6285 0 58.9612 0 55.2333C0 51.5055 0.942461 47.8382 2.73972 44.5725C4.53697 41.3069 7.13063 38.5491 10.2794 36.5555Z" fill="white"/>
<path d="M68.4814 31.5391L68.4629 31.6123L65.7656 42.2744H76.001L78.7051 31.583L78.7168 31.5391H83.3838L83.3662 31.6113L80.7314 42.2744H87.5352V46.6855H79.5664L76.5635 59.3242H84.125V63.7363H75.3975L72.7568 74.1113L72.7451 74.1553H68.0781L68.0957 74.082L70.667 63.7363H60.4316L57.8535 74.1104L57.8428 74.1553H53.1113L53.1299 74.082L55.7637 63.7363H48.8975V59.3242H56.8662L59.9326 46.6855H52.3076V42.2744H61.0342L63.7393 31.583L63.75 31.5391H68.4814ZM61.5977 59.3242H71.832L74.835 46.6855H64.5996L61.5977 59.3242ZM38.7598 74.1553H30.3701V45.8057C30.37 44.649 30.0261 43.5901 29.374 42.8213C28.7226 42.0535 27.76 41.5703 26.5137 41.5703L23.6729 41.6338L23.6133 41.6348V40.2725L23.6494 40.2578L37.29 34.6377L37.3174 34.626L37.3438 34.6426L38.7324 35.5264L38.7598 35.5439V74.1553Z" fill="#F24822" stroke="#F24822" stroke-width="0.11748"/>
</svg>
